<svg id="Layer_1" data-name="Layer 1" xmlns="http://www.w3.org/2000/svg" viewBox="0 0 600 87.57"><defs><style>.cls-1,.cls-2{fill:#fff;}.cls-1,.cls-3{fill-rule:evenodd;}.cls-3{fill:#81b5a1;}</style></defs><path class="cls-1" d="M144.89,27A25.66,25.66,0,0,0,128.42,33V27.64h-15V86.19H129V48.77a18.58,18.58,0,0,1,14.19-7.25,16.08,16.08,0,0,1,6.27.94v-15a26.65,26.65,0,0,0-4.59-.4"/><path class="cls-1" d="M8.58,68.33c4,3.62,10.1,5.79,16,5.79,4.21,0,7.46-2.05,7.46-5C32,60.36,3.77,63.5,3.77,44.66c0-11.22,10.82-18.23,22.37-18.23,7.57,0,15.87,2.9,19.72,5.92L38.52,43.7a19.54,19.54,0,0,0-11.18-4c-4.33,0-7.94,1.69-7.94,4.71C19.4,52,47.67,49,47.67,69.29c0,11.23-11,18.11-23.22,18.11A40.25,40.25,0,0,1,1,79.55Z"/><path class="cls-1" d="M106.71,56.37c0-16.3-11.43-29.94-27.54-29.94C61.85,26.43,50.78,40.68,50.78,57c0,18.35,13.11,30.42,30.55,30.42,9,0,18.28-3.74,23.94-10.5L96.37,68c-2.77,3-8.06,6.76-14.68,6.76-8.3,0-14.91-5.67-15.75-13.88h40.41A26,26,0,0,0,106.71,56.37Zm-40-7c.72-5.31,6-10.26,12.51-10.26A11.64,11.64,0,0,1,90.71,49.37Z"/><polygon class="cls-1" points="186.75 63.38 202.74 27.64 218.98 27.64 192.16 86.19 181.34 86.19 154.51 27.64 170.75 27.64 186.75 63.38"/><path class="cls-1" d="M232.11.15a10,10,0,1,1-10.22,10,10,10,0,0,1,10.22-10"/><rect class="cls-2" x="224.29" y="27.64" width="15.64" height="58.55"/><path class="cls-1" d="M304.57,74.24c-6.85,9.17-15.51,13.16-26.46,13.16-18,0-31.27-13.52-31.27-30.42s13.59-30.55,31.39-30.55a31.08,31.08,0,0,1,24.54,11.71l-11.06,9.78a16.9,16.9,0,0,0-13.48-7c-9,0-15.75,7.12-15.75,16.06,0,9.17,6.61,15.93,16.11,15.93a17.1,17.1,0,0,0,14-7.72Z"/><path class="cls-1" d="M361.36,76.9c-5.65,6.76-14.91,10.5-23.93,10.5C320,87.4,306.88,75.33,306.88,57c0-16.3,11.06-30.55,28.38-30.55,16.12,0,27.54,13.64,27.54,29.94a26,26,0,0,1-.36,4.47H322c.84,8.21,7.46,13.88,15.76,13.88,6.61,0,11.9-3.74,14.67-6.76ZM346.81,49.37a11.65,11.65,0,0,0-11.55-10.26c-6.49,0-11.78,5-12.51,10.26Z"/><path class="cls-1" d="M369,86.19V27.64h15v4.71a25.7,25.7,0,0,1,16.48-5.92,26.25,26.25,0,0,1,20.21,9.42c3.84,4.59,6,10.5,6,20.52V86.19H411.11v-31c0-5.8-1.32-8.82-3.48-11a12.3,12.3,0,0,0-8.78-3.26,18.61,18.61,0,0,0-14.19,7.24v38Z"/><path class="cls-3" d="M467,26.43a34.25,34.25,0,0,0-23.58,59.13,6.76,6.76,0,0,0,8.79.46,24.45,24.45,0,0,1,29.18,0,6.78,6.78,0,0,0,8.84-.51A34.25,34.25,0,0,0,467,26.43m-.2,51.33c-10.12,0-17.05-7.62-17.05-17s6.93-17.18,17.05-17.18,17,7.75,17,17.18-6.92,17-17,17"/><polygon class="cls-1" points="531.84 86.19 520.2 86.19 496.98 27.64 512.59 27.64 525.32 61.1 537.8 27.64 550.85 27.64 563.22 61.1 576.06 27.64 591.68 27.64 568.46 86.19 556.81 86.19 544.33 52.85 531.84 86.19"/><path class="cls-2" d="M591.86,79.59h-1.32v2.48h-1.12v-6.8h2.72a2.17,2.17,0,0,1,2.18,2.18,2.14,2.14,0,0,1-1.35,2l1.55,2.64h-1.23Zm-1.32-1h1.6a1.14,1.14,0,0,0,0-2.27h-1.6Z"/><path class="cls-2" d="M591.71,72.49a6.3,6.3,0,1,1-6.29,6.29,6.29,6.29,0,0,1,6.29-6.29m0-1A7.29,7.29,0,1,0,599,78.78a7.28,7.28,0,0,0-7.29-7.28Z"/></svg>